<mxfile host="Electron" modified="2024-06-18T14:29:26.701Z" agent="Mozilla/5.0 (Windows NT 10.0; Win64; x64) AppleWebKit/537.36 (KHTML, like Gecko) draw.io/24.0.4 Chrome/120.0.6099.109 Electron/28.1.0 Safari/537.36" etag="LGh09ii3H3qaSYMvjhp7" version="24.0.4" type="device">
  <diagram id="prtHgNgQTEPvFCAcTncT" name="Page-1">
    <mxGraphModel dx="683" dy="398" grid="1" gridSize="10" guides="1" tooltips="1" connect="1" arrows="1" fold="1" page="1" pageScale="1" pageWidth="827" pageHeight="1169" math="0" shadow="0">
      <root>
        <mxCell id="0" />
        <mxCell id="1" parent="0" />
        <mxCell id="6sgo5NTg-cjUkFB0yXkJ-7" value="" style="group" vertex="1" connectable="0" parent="1">
          <mxGeometry x="240" y="170" width="120" height="60" as="geometry" />
        </mxCell>
        <mxCell id="6sgo5NTg-cjUkFB0yXkJ-1" value="&lt;font style=&quot;font-size: 14px;&quot;&gt;Receiver&amp;nbsp; &amp;nbsp;&lt;/font&gt;" style="rounded=1;whiteSpace=wrap;html=1;align=right;" vertex="1" parent="6sgo5NTg-cjUkFB0yXkJ-7">
          <mxGeometry width="120" height="60" as="geometry" />
        </mxCell>
        <mxCell id="6sgo5NTg-cjUkFB0yXkJ-2" value="C" style="ellipse;whiteSpace=wrap;html=1;aspect=fixed;fillColor=#dae8fc;strokeColor=#6c8ebf;" vertex="1" parent="6sgo5NTg-cjUkFB0yXkJ-7">
          <mxGeometry x="10" y="15" width="30" height="30" as="geometry" />
        </mxCell>
        <mxCell id="6sgo5NTg-cjUkFB0yXkJ-9" value="&lt;span style=&quot;font-size: 14px;&quot;&gt;ConcreteRunnable&amp;nbsp; &amp;nbsp;&lt;/span&gt;" style="rounded=1;whiteSpace=wrap;html=1;align=right;container=0;" vertex="1" parent="1">
          <mxGeometry x="240" y="300" width="180" height="60" as="geometry" />
        </mxCell>
        <mxCell id="6sgo5NTg-cjUkFB0yXkJ-10" value="C" style="ellipse;whiteSpace=wrap;html=1;aspect=fixed;fillColor=#dae8fc;strokeColor=#6c8ebf;container=0;" vertex="1" parent="1">
          <mxGeometry x="250" y="315" width="30" height="30" as="geometry" />
        </mxCell>
        <mxCell id="6sgo5NTg-cjUkFB0yXkJ-13" value="&lt;span style=&quot;font-size: 14px;&quot;&gt;ThreadPoolExecutor&amp;nbsp;&lt;/span&gt;" style="rounded=1;whiteSpace=wrap;html=1;align=right;container=0;" vertex="1" parent="1">
          <mxGeometry x="460" y="300" width="180" height="60" as="geometry" />
        </mxCell>
        <mxCell id="6sgo5NTg-cjUkFB0yXkJ-14" value="C" style="ellipse;whiteSpace=wrap;html=1;aspect=fixed;fillColor=#dae8fc;strokeColor=#6c8ebf;container=0;" vertex="1" parent="1">
          <mxGeometry x="470" y="315" width="30" height="30" as="geometry" />
        </mxCell>
        <mxCell id="6sgo5NTg-cjUkFB0yXkJ-18" value="&lt;span style=&quot;font-size: 14px;&quot;&gt;Runnable&amp;nbsp;&lt;/span&gt;" style="rounded=1;whiteSpace=wrap;html=1;align=right;container=0;" vertex="1" parent="1">
          <mxGeometry x="400" y="170" width="110" height="60" as="geometry" />
        </mxCell>
        <mxCell id="6sgo5NTg-cjUkFB0yXkJ-19" value="I" style="ellipse;whiteSpace=wrap;html=1;aspect=fixed;fillColor=#d5e8d4;strokeColor=#82b366;container=0;" vertex="1" parent="1">
          <mxGeometry x="410" y="185" width="30" height="30" as="geometry" />
        </mxCell>
        <mxCell id="6sgo5NTg-cjUkFB0yXkJ-20" value="&lt;span style=&quot;font-size: 14px;&quot;&gt;BlockingQueue&amp;nbsp;&amp;nbsp;&lt;/span&gt;" style="rounded=1;whiteSpace=wrap;html=1;align=right;container=0;" vertex="1" parent="1">
          <mxGeometry x="540" y="170" width="150" height="60" as="geometry" />
        </mxCell>
        <mxCell id="6sgo5NTg-cjUkFB0yXkJ-21" value="I" style="ellipse;whiteSpace=wrap;html=1;aspect=fixed;fillColor=#d5e8d4;strokeColor=#82b366;container=0;" vertex="1" parent="1">
          <mxGeometry x="550" y="185" width="30" height="30" as="geometry" />
        </mxCell>
        <mxCell id="6sgo5NTg-cjUkFB0yXkJ-23" value="1" style="endArrow=open;html=1;endSize=12;startArrow=diamondThin;startSize=14;startFill=1;edgeStyle=orthogonalEdgeStyle;align=left;verticalAlign=bottom;rounded=0;exitX=0.5;exitY=0;exitDx=0;exitDy=0;" edge="1" parent="1" source="6sgo5NTg-cjUkFB0yXkJ-9" target="6sgo5NTg-cjUkFB0yXkJ-1">
          <mxGeometry x="-0.6" relative="1" as="geometry">
            <mxPoint x="300" y="250" as="sourcePoint" />
            <mxPoint x="460" y="250" as="targetPoint" />
            <mxPoint as="offset" />
          </mxGeometry>
        </mxCell>
        <mxCell id="6sgo5NTg-cjUkFB0yXkJ-24" value="" style="endArrow=block;dashed=1;endFill=0;endSize=12;html=1;rounded=0;edgeStyle=orthogonalEdgeStyle;entryX=0.25;entryY=1;entryDx=0;entryDy=0;" edge="1" parent="1" target="6sgo5NTg-cjUkFB0yXkJ-18">
          <mxGeometry width="160" relative="1" as="geometry">
            <mxPoint x="370" y="300" as="sourcePoint" />
            <mxPoint x="540" y="290" as="targetPoint" />
            <Array as="points">
              <mxPoint x="370" y="265" />
              <mxPoint x="428" y="265" />
            </Array>
          </mxGeometry>
        </mxCell>
        <mxCell id="6sgo5NTg-cjUkFB0yXkJ-25" value="" style="endArrow=block;dashed=1;endFill=0;endSize=12;html=1;rounded=0;edgeStyle=orthogonalEdgeStyle;entryX=0.5;entryY=1;entryDx=0;entryDy=0;exitX=0.25;exitY=0;exitDx=0;exitDy=0;" edge="1" parent="1" source="6sgo5NTg-cjUkFB0yXkJ-13" target="6sgo5NTg-cjUkFB0yXkJ-18">
          <mxGeometry width="160" relative="1" as="geometry">
            <mxPoint x="521" y="300" as="sourcePoint" />
            <mxPoint x="579" y="230" as="targetPoint" />
            <Array as="points">
              <mxPoint x="505" y="265" />
              <mxPoint x="455" y="265" />
            </Array>
          </mxGeometry>
        </mxCell>
        <mxCell id="6sgo5NTg-cjUkFB0yXkJ-28" value="1" style="endArrow=open;html=1;endSize=12;startArrow=diamondThin;startSize=14;startFill=1;edgeStyle=orthogonalEdgeStyle;align=left;verticalAlign=bottom;rounded=0;exitX=0.5;exitY=0;exitDx=0;exitDy=0;entryX=0.75;entryY=1;entryDx=0;entryDy=0;" edge="1" parent="1" source="6sgo5NTg-cjUkFB0yXkJ-13" target="6sgo5NTg-cjUkFB0yXkJ-18">
          <mxGeometry x="-0.6" relative="1" as="geometry">
            <mxPoint x="550" y="314.48" as="sourcePoint" />
            <mxPoint x="520" y="244.48" as="targetPoint" />
            <mxPoint as="offset" />
            <Array as="points">
              <mxPoint x="550" y="260" />
              <mxPoint x="483" y="260" />
            </Array>
          </mxGeometry>
        </mxCell>
        <mxCell id="6sgo5NTg-cjUkFB0yXkJ-29" value="1" style="endArrow=open;html=1;endSize=12;startArrow=diamondThin;startSize=14;startFill=1;edgeStyle=orthogonalEdgeStyle;align=left;verticalAlign=bottom;rounded=0;exitX=0.75;exitY=0;exitDx=0;exitDy=0;" edge="1" parent="1" source="6sgo5NTg-cjUkFB0yXkJ-13" target="6sgo5NTg-cjUkFB0yXkJ-20">
          <mxGeometry x="-0.6" relative="1" as="geometry">
            <mxPoint x="560" y="310" as="sourcePoint" />
            <mxPoint x="493" y="240" as="targetPoint" />
            <mxPoint as="offset" />
          </mxGeometry>
        </mxCell>
      </root>
    </mxGraphModel>
  </diagram>
</mxfile>
